# xmcd
# Track frame offsets:
# 210
# 12212
# 22770
# 33265
# 42100
# 54140
# 67125
# 86885
# 97670
# 111517
# 124992
# 138262
# 154375
#
# Disc length: 2246 seconds
# Revision: 0
# Processed by: cddbd v1.4PL0 Copyright (c) Steve Scherf et al.
# Submitted via: VisiTrax 2.9.5.180 - For more info visit www.synapsa.com
#
DISCID=a208c40d
DTITLE=Sonn Curtis - Sonny Curtis
DYEAR=1985
DGENRE=
TTITLE0=Midnight shift
TTITLE1=That'll be the day
TTITLE2=Well alright
TTITLE3=Rock around with Ollie Vee
TTITLE4=Think it over
TTITLE5=More than I can say
TTITLE6=Raoul
TTITLE7=I'm no stranger to the rain
TTITLE8=True love ways
TTITLE9=Pleasure island
TTITLE10=Now we got a heart of gold
TTITLE11=Amarillo blows
TTITLE12=Bad case of love
EXTD=
EXTT0=
EXTT1=
EXTT2=
EXTT3=
EXTT4=
EXTT5=
EXTT6=
EXTT7=
EXTT8=
EXTT9=
EXTT10=
EXTT11=
EXTT12=
PLAYORDER=
